<mxfile host="app.diagrams.net" agent="Mozilla/5.0 (Windows NT 10.0; Win64; x64) AppleWebKit/537.36 (KHTML, like Gecko) Chrome/128.0.0.0 Safari/537.36 OPR/114.0.0.0 (Edition Yx GX)" version="25.0.3">
  <diagram name="Страница — 1" id="JsSABdHZsrAfHs75EP8Q">
    <mxGraphModel dx="1222" dy="1877" grid="1" gridSize="10" guides="1" tooltips="1" connect="1" arrows="1" fold="1" page="1" pageScale="1" pageWidth="827" pageHeight="1169" math="0" shadow="0">
      <root>
        <mxCell id="0" />
        <mxCell id="1" parent="0" />
        <mxCell id="WDpdIfvKsCBMP0oGRnhK-1" value="Статус" style="swimlane;fontStyle=0;childLayout=stackLayout;horizontal=1;startSize=30;horizontalStack=0;resizeParent=1;resizeParentMax=0;resizeLast=0;collapsible=1;marginBottom=0;whiteSpace=wrap;html=1;" parent="1" vertex="1">
          <mxGeometry width="140" height="210" as="geometry" />
        </mxCell>
        <mxCell id="WDpdIfvKsCBMP0oGRnhK-2" value="в процессе" style="text;strokeColor=none;fillColor=none;align=left;verticalAlign=middle;spacingLeft=4;spacingRight=4;overflow=hidden;points=[[0,0.5],[1,0.5]];portConstraint=eastwest;rotatable=0;whiteSpace=wrap;html=1;" parent="WDpdIfvKsCBMP0oGRnhK-1" vertex="1">
          <mxGeometry y="30" width="140" height="30" as="geometry" />
        </mxCell>
        <mxCell id="WDpdIfvKsCBMP0oGRnhK-3" value="готово" style="text;strokeColor=none;fillColor=none;align=left;verticalAlign=middle;spacingLeft=4;spacingRight=4;overflow=hidden;points=[[0,0.5],[1,0.5]];portConstraint=eastwest;rotatable=0;whiteSpace=wrap;html=1;" parent="WDpdIfvKsCBMP0oGRnhK-1" vertex="1">
          <mxGeometry y="60" width="140" height="30" as="geometry" />
        </mxCell>
        <mxCell id="WDpdIfvKsCBMP0oGRnhK-4" value="не начато" style="text;strokeColor=none;fillColor=none;align=left;verticalAlign=middle;spacingLeft=4;spacingRight=4;overflow=hidden;points=[[0,0.5],[1,0.5]];portConstraint=eastwest;rotatable=0;whiteSpace=wrap;html=1;" parent="WDpdIfvKsCBMP0oGRnhK-1" vertex="1">
          <mxGeometry y="90" width="140" height="30" as="geometry" />
        </mxCell>
        <mxCell id="HioznCeSoNe0UJD3Muhc-55" value="ждем инфо от заказчика" style="text;strokeColor=none;fillColor=none;align=left;verticalAlign=middle;spacingLeft=4;spacingRight=4;overflow=hidden;points=[[0,0.5],[1,0.5]];portConstraint=eastwest;rotatable=0;whiteSpace=wrap;html=1;" parent="WDpdIfvKsCBMP0oGRnhK-1" vertex="1">
          <mxGeometry y="120" width="140" height="30" as="geometry" />
        </mxCell>
        <mxCell id="HioznCeSoNe0UJD3Muhc-56" value="отмена" style="text;strokeColor=none;fillColor=none;align=left;verticalAlign=middle;spacingLeft=4;spacingRight=4;overflow=hidden;points=[[0,0.5],[1,0.5]];portConstraint=eastwest;rotatable=0;whiteSpace=wrap;html=1;" parent="WDpdIfvKsCBMP0oGRnhK-1" vertex="1">
          <mxGeometry y="150" width="140" height="30" as="geometry" />
        </mxCell>
        <mxCell id="HioznCeSoNe0UJD3Muhc-54" value="на проверке" style="text;strokeColor=none;fillColor=none;align=left;verticalAlign=middle;spacingLeft=4;spacingRight=4;overflow=hidden;points=[[0,0.5],[1,0.5]];portConstraint=eastwest;rotatable=0;whiteSpace=wrap;html=1;" parent="WDpdIfvKsCBMP0oGRnhK-1" vertex="1">
          <mxGeometry y="180" width="140" height="30" as="geometry" />
        </mxCell>
        <mxCell id="WDpdIfvKsCBMP0oGRnhK-5" value="Задача" style="swimlane;fontStyle=0;childLayout=stackLayout;horizontal=1;startSize=30;horizontalStack=0;resizeParent=1;resizeParentMax=0;resizeLast=0;collapsible=1;marginBottom=0;whiteSpace=wrap;html=1;" parent="1" vertex="1">
          <mxGeometry x="150" y="-130" width="291" height="420" as="geometry" />
        </mxCell>
        <mxCell id="WDpdIfvKsCBMP0oGRnhK-6" value="название (обязательное поле)" style="text;strokeColor=none;fillColor=none;align=left;verticalAlign=middle;spacingLeft=4;spacingRight=4;overflow=hidden;points=[[0,0.5],[1,0.5]];portConstraint=eastwest;rotatable=0;whiteSpace=wrap;html=1;" parent="WDpdIfvKsCBMP0oGRnhK-5" vertex="1">
          <mxGeometry y="30" width="291" height="30" as="geometry" />
        </mxCell>
        <mxCell id="WDpdIfvKsCBMP0oGRnhK-7" value="проект (внешний ключ)&amp;nbsp;" style="text;strokeColor=none;fillColor=none;align=left;verticalAlign=middle;spacingLeft=4;spacingRight=4;overflow=hidden;points=[[0,0.5],[1,0.5]];portConstraint=eastwest;rotatable=0;whiteSpace=wrap;html=1;" parent="WDpdIfvKsCBMP0oGRnhK-5" vertex="1">
          <mxGeometry y="60" width="291" height="30" as="geometry" />
        </mxCell>
        <mxCell id="WDpdIfvKsCBMP0oGRnhK-8" value="дата сдачи&amp;nbsp;" style="text;strokeColor=none;fillColor=none;align=left;verticalAlign=middle;spacingLeft=4;spacingRight=4;overflow=hidden;points=[[0,0.5],[1,0.5]];portConstraint=eastwest;rotatable=0;whiteSpace=wrap;html=1;" parent="WDpdIfvKsCBMP0oGRnhK-5" vertex="1">
          <mxGeometry y="90" width="291" height="30" as="geometry" />
        </mxCell>
        <mxCell id="HioznCeSoNe0UJD3Muhc-57" value="свободная задача(булеан)" style="text;strokeColor=none;fillColor=none;align=left;verticalAlign=middle;spacingLeft=4;spacingRight=4;overflow=hidden;points=[[0,0.5],[1,0.5]];portConstraint=eastwest;rotatable=0;whiteSpace=wrap;html=1;" parent="WDpdIfvKsCBMP0oGRnhK-5" vertex="1">
          <mxGeometry y="120" width="291" height="30" as="geometry" />
        </mxCell>
        <mxCell id="WDpdIfvKsCBMP0oGRnhK-81" value="дата создания (обязательное поле)" style="text;strokeColor=none;fillColor=none;align=left;verticalAlign=middle;spacingLeft=4;spacingRight=4;overflow=hidden;points=[[0,0.5],[1,0.5]];portConstraint=eastwest;rotatable=0;whiteSpace=wrap;html=1;" parent="WDpdIfvKsCBMP0oGRnhK-5" vertex="1">
          <mxGeometry y="150" width="291" height="30" as="geometry" />
        </mxCell>
        <mxCell id="WDpdIfvKsCBMP0oGRnhK-82" value="дата изменения" style="text;strokeColor=none;fillColor=none;align=left;verticalAlign=middle;spacingLeft=4;spacingRight=4;overflow=hidden;points=[[0,0.5],[1,0.5]];portConstraint=eastwest;rotatable=0;whiteSpace=wrap;html=1;" parent="WDpdIfvKsCBMP0oGRnhK-5" vertex="1">
          <mxGeometry y="180" width="291" height="30" as="geometry" />
        </mxCell>
        <mxCell id="WDpdIfvKsCBMP0oGRnhK-9" value="описание (обязательное поле)&amp;nbsp; htmlfield" style="text;strokeColor=none;fillColor=none;align=left;verticalAlign=middle;spacingLeft=4;spacingRight=4;overflow=hidden;points=[[0,0.5],[1,0.5]];portConstraint=eastwest;rotatable=0;whiteSpace=wrap;html=1;" parent="WDpdIfvKsCBMP0oGRnhK-5" vertex="1">
          <mxGeometry y="210" width="291" height="30" as="geometry" />
        </mxCell>
        <mxCell id="WDpdIfvKsCBMP0oGRnhK-10" value="стоимость&amp;nbsp;&lt;span style=&quot;color: rgba(0, 0, 0, 0); font-family: monospace; font-size: 0px; text-wrap: nowrap;&quot;&gt;%3CmxGraphModel%3E%3Croot%3E%3CmxCell%20id%3D%220%22%2F%3E%3CmxCell%20id%3D%221%22%20parent%3D%220%22%2F%3E%3CmxCell%20id%3D%222%22%20value%3D%22%26lt%3Bspan%20style%3D%26quot%3Bfont-size%3A%2014px%3B%26quot%3B%26gt%3B%D0%B4%D0%B0%D1%82%D0%B0%20%D1%81%D0%BE%D0%B7%D0%B4%D0%B0%D0%BD%D0%B8%D1%8F%2F%D0%BF%D0%BE%D1%81%D0%BB%D0%B5%D0%B4%D0%BD%D0%B5%D0%B3%D0%BE%20%D0%B8%D0%B7%D0%BC%D0%B5%D0%BD%D0%B5%D0%BD%D0%B8%D1%8F%26lt%3B%2Fspan%26gt%3B%22%20style%3D%22text%3Bhtml%3D1%3Balign%3Dcenter%3BverticalAlign%3Dmiddle%3BwhiteSpace%3Dwrap%3Brounded%3D0%3B%22%20vertex%3D%221%22%20parent%3D%221%22%3E%3CmxGeometry%20x%3D%2220%22%20y%3D%22475%22%20width%3D%22200%22%20height%3D%2230%22%20as%3D%22geometry%22%2F%3E%3C%2FmxCell%3E%3C%2Froot%3E%3C%2FmxGraphModel%3E&lt;/span&gt;интежер" style="text;strokeColor=none;fillColor=none;align=left;verticalAlign=middle;spacingLeft=4;spacingRight=4;overflow=hidden;points=[[0,0.5],[1,0.5]];portConstraint=eastwest;rotatable=0;whiteSpace=wrap;html=1;" parent="WDpdIfvKsCBMP0oGRnhK-5" vertex="1">
          <mxGeometry y="240" width="291" height="30" as="geometry" />
        </mxCell>
        <mxCell id="HioznCeSoNe0UJD3Muhc-59" value="почасовка интежер" style="text;strokeColor=none;fillColor=none;align=left;verticalAlign=middle;spacingLeft=4;spacingRight=4;overflow=hidden;points=[[0,0.5],[1,0.5]];portConstraint=eastwest;rotatable=0;whiteSpace=wrap;html=1;" parent="WDpdIfvKsCBMP0oGRnhK-5" vertex="1">
          <mxGeometry y="270" width="291" height="30" as="geometry" />
        </mxCell>
        <mxCell id="HioznCeSoNe0UJD3Muhc-60" value="тип оплаты choosefild" style="text;strokeColor=none;fillColor=none;align=left;verticalAlign=middle;spacingLeft=4;spacingRight=4;overflow=hidden;points=[[0,0.5],[1,0.5]];portConstraint=eastwest;rotatable=0;whiteSpace=wrap;html=1;" parent="WDpdIfvKsCBMP0oGRnhK-5" vertex="1">
          <mxGeometry y="300" width="291" height="30" as="geometry" />
        </mxCell>
        <mxCell id="HioznCeSoNe0UJD3Muhc-61" value="время планируемое" style="text;strokeColor=none;fillColor=none;align=left;verticalAlign=middle;spacingLeft=4;spacingRight=4;overflow=hidden;points=[[0,0.5],[1,0.5]];portConstraint=eastwest;rotatable=0;whiteSpace=wrap;html=1;" parent="WDpdIfvKsCBMP0oGRnhK-5" vertex="1">
          <mxGeometry y="330" width="291" height="30" as="geometry" />
        </mxCell>
        <mxCell id="HioznCeSoNe0UJD3Muhc-62" value="время по факту" style="text;strokeColor=none;fillColor=none;align=left;verticalAlign=middle;spacingLeft=4;spacingRight=4;overflow=hidden;points=[[0,0.5],[1,0.5]];portConstraint=eastwest;rotatable=0;whiteSpace=wrap;html=1;" parent="WDpdIfvKsCBMP0oGRnhK-5" vertex="1">
          <mxGeometry y="360" width="291" height="30" as="geometry" />
        </mxCell>
        <mxCell id="WDpdIfvKsCBMP0oGRnhK-83" value="исполнитель (внешний ключ) (обязательное поле)" style="text;strokeColor=none;fillColor=none;align=left;verticalAlign=middle;spacingLeft=4;spacingRight=4;overflow=hidden;points=[[0,0.5],[1,0.5]];portConstraint=eastwest;rotatable=0;whiteSpace=wrap;html=1;" parent="WDpdIfvKsCBMP0oGRnhK-5" vertex="1">
          <mxGeometry y="390" width="291" height="30" as="geometry" />
        </mxCell>
        <mxCell id="WDpdIfvKsCBMP0oGRnhK-13" value="Отчет" style="swimlane;fontStyle=0;childLayout=stackLayout;horizontal=1;startSize=30;horizontalStack=0;resizeParent=1;resizeParentMax=0;resizeLast=0;collapsible=1;marginBottom=0;whiteSpace=wrap;html=1;" parent="1" vertex="1">
          <mxGeometry x="1070" y="-80" width="260" height="180" as="geometry" />
        </mxCell>
        <mxCell id="WDpdIfvKsCBMP0oGRnhK-21" value="задача (внешний ключ)&lt;span style=&quot;color: rgba(0, 0, 0, 0); font-family: monospace; font-size: 0px; text-wrap: nowrap;&quot;&gt;%3CmxGraphModel%3E%3Croot%3E%3CmxCell%20id%3D%220%22%2F%3E%3CmxCell%20id%3D%221%22%20parent%3D%220%22%2F%3E%3CmxCell%20id%3D%222%22%20value%3D%22%D1%81%D0%BE%D0%B7%D0%B4%D0%B0%D1%82%D0%B5%D0%BB%D1%8C%20(%D0%B2%D0%BD%D0%B5%D1%88%D0%BD%D0%B8%D0%B9%20%D0%BA%D0%BB%D1%8E%D1%87)%22%20style%3D%22text%3BstrokeColor%3Dnone%3BfillColor%3Dnone%3Balign%3Dleft%3BverticalAlign%3Dmiddle%3BspacingLeft%3D4%3BspacingRight%3D4%3Boverflow%3Dhidden%3Bpoints%3D%5B%5B0%2C0.5%5D%2C%5B1%2C0.5%5D%5D%3BportConstraint%3Deastwest%3Brotatable%3D0%3BwhiteSpace%3Dwrap%3Bhtml%3D1%3B%22%20vertex%3D%221%22%20parent%3D%221%22%3E%3CmxGeometry%20x%3D%22150%22%20y%3D%22270%22%20width%3D%22140%22%20height%3D%2230%22%20as%3D%22geometry%22%2F%3E%3C%2FmxCell%3E%3C%2Froot%3E%3C%2FmxGraphModel%3E&lt;/span&gt;&lt;span style=&quot;color: rgba(0, 0, 0, 0); font-family: monospace; font-size: 0px; text-wrap: nowrap;&quot;&gt;%3CmxGraphModel%3E%3Croot%3E%3CmxCell%20id%3D%220%22%2F%3E%3CmxCell%20id%3D%221%22%20parent%3D%220%22%2F%3E%3CmxCell%20id%3D%222%22%20value%3D%22%D1%81%D0%BE%D0%B7%D0%B4%D0%B0%D1%82%D0%B5%D0%BB%D1%8C%20(%D0%B2%D0%BD%D0%B5%D1%88%D0%BD%D0%B8%D0%B9%20%D0%BA%D0%BB%D1%8E%D1%87)%22%20style%3D%22text%3BstrokeColor%3Dnone%3BfillColor%3Dnone%3Balign%3Dleft%3BverticalAlign%3Dmiddle%3BspacingLeft%3D4%3BspacingRight%3D4%3Boverflow%3Dhidden%3Bpoints%3D%5B%5B0%2C0.5%5D%2C%5B1%2C0.5%5D%5D%3BportConstraint%3Deastwest%3Brotatable%3D0%3BwhiteSpace%3Dwrap%3Bhtml%3D1%3B%22%20vertex%3D%221%22%20parent%3D%221%22%3E%3CmxGeometry%20x%3D%22150%22%20y%3D%22270%22%20width%3D%22140%22%20height%3D%2230%22%20as%3D%22geometry%22%2F%3E%3C%2FmxCell%3E%3C%2Froot%3E%3C%2FmxGraphModel%3E&lt;/span&gt;&lt;span style=&quot;color: rgba(0, 0, 0, 0); font-family: monospace; font-size: 0px; text-wrap: nowrap;&quot;&gt;%3CmxGraphModel%3E%3Croot%3E%3CmxCell%20id%3D%220%22%2F%3E%3CmxCell%20id%3D%221%22%20parent%3D%220%22%2F%3E%3CmxCell%20id%3D%222%22%20value%3D%22%D1%81%D0%BE%D0%B7%D0%B4%D0%B0%D1%82%D0%B5%D0%BB%D1%8C%20(%D0%B2%D0%BD%D0%B5%D1%88%D0%BD%D0%B8%D0%B9%20%D0%BA%D0%BB%D1%8E%D1%87)%22%20style%3D%22text%3BstrokeColor%3Dnone%3BfillColor%3Dnone%3Balign%3Dleft%3BverticalAlign%3Dmiddle%3BspacingLeft%3D4%3BspacingRight%3D4%3Boverflow%3Dhidden%3Bpoints%3D%5B%5B0%2C0.5%5D%2C%5B1%2C0.5%5D%5D%3BportConstraint%3Deastwest%3Brotatable%3D0%3BwhiteSpace%3Dwrap%3Bhtml%3D1%3B%22%20vertex%3D%221%22%20parent%3D%221%22%3E%3CmxGeometry%20x%3D%22150%22%20y%3D%22270%22%20width%3D%22140%22%20height%3D%2230%22%20as%3D%22geometry%22%2F%3E%3C%2FmxCell%3E%3C%2Froot%3E%3C%2FmxGraphModel%3E&amp;nbsp;&lt;/span&gt;(обязательное поле)" style="text;strokeColor=none;fillColor=none;align=left;verticalAlign=middle;spacingLeft=4;spacingRight=4;overflow=hidden;points=[[0,0.5],[1,0.5]];portConstraint=eastwest;rotatable=0;whiteSpace=wrap;html=1;" parent="WDpdIfvKsCBMP0oGRnhK-13" vertex="1">
          <mxGeometry y="30" width="260" height="30" as="geometry" />
        </mxCell>
        <mxCell id="WDpdIfvKsCBMP0oGRnhK-15" value="статус (внешний ключ) (обязательное поле)" style="text;strokeColor=none;fillColor=none;align=left;verticalAlign=middle;spacingLeft=4;spacingRight=4;overflow=hidden;points=[[0,0.5],[1,0.5]];portConstraint=eastwest;rotatable=0;whiteSpace=wrap;html=1;" parent="WDpdIfvKsCBMP0oGRnhK-13" vertex="1">
          <mxGeometry y="60" width="260" height="30" as="geometry" />
        </mxCell>
        <mxCell id="HioznCeSoNe0UJD3Muhc-15" value="потрачено времени (обязательное поле)" style="text;strokeColor=none;fillColor=none;align=left;verticalAlign=middle;spacingLeft=4;spacingRight=4;overflow=hidden;points=[[0,0.5],[1,0.5]];portConstraint=eastwest;rotatable=0;whiteSpace=wrap;html=1;" parent="WDpdIfvKsCBMP0oGRnhK-13" vertex="1">
          <mxGeometry y="90" width="260" height="30" as="geometry" />
        </mxCell>
        <mxCell id="WDpdIfvKsCBMP0oGRnhK-14" value="комментарий" style="text;strokeColor=none;fillColor=none;align=left;verticalAlign=middle;spacingLeft=4;spacingRight=4;overflow=hidden;points=[[0,0.5],[1,0.5]];portConstraint=eastwest;rotatable=0;whiteSpace=wrap;html=1;" parent="WDpdIfvKsCBMP0oGRnhK-13" vertex="1">
          <mxGeometry y="120" width="260" height="30" as="geometry" />
        </mxCell>
        <mxCell id="WDpdIfvKsCBMP0oGRnhK-20" value="дата (обязательное поле)" style="text;strokeColor=none;fillColor=none;align=left;verticalAlign=middle;spacingLeft=4;spacingRight=4;overflow=hidden;points=[[0,0.5],[1,0.5]];portConstraint=eastwest;rotatable=0;whiteSpace=wrap;html=1;" parent="WDpdIfvKsCBMP0oGRnhK-13" vertex="1">
          <mxGeometry y="150" width="260" height="30" as="geometry" />
        </mxCell>
        <mxCell id="WDpdIfvKsCBMP0oGRnhK-22" value="" style="rounded=1;whiteSpace=wrap;html=1;" parent="1" vertex="1">
          <mxGeometry x="580" y="290" width="420" height="200" as="geometry" />
        </mxCell>
        <mxCell id="WDpdIfvKsCBMP0oGRnhK-23" value="&lt;b&gt;&lt;font style=&quot;font-size: 20px;&quot;&gt;Задачи&lt;/font&gt;&lt;/b&gt;" style="text;html=1;align=center;verticalAlign=middle;whiteSpace=wrap;rounded=0;" parent="1" vertex="1">
          <mxGeometry x="610" y="300" width="60" height="30" as="geometry" />
        </mxCell>
        <mxCell id="WDpdIfvKsCBMP0oGRnhK-24" value="&lt;font style=&quot;font-size: 14px;&quot;&gt;Задача 1&lt;/font&gt;" style="text;html=1;align=center;verticalAlign=middle;whiteSpace=wrap;rounded=0;" parent="1" vertex="1">
          <mxGeometry x="600" y="350" width="90" height="30" as="geometry" />
        </mxCell>
        <mxCell id="WDpdIfvKsCBMP0oGRnhK-26" value="&lt;font style=&quot;font-size: 14px;&quot;&gt;статус&lt;/font&gt;" style="rounded=1;whiteSpace=wrap;html=1;fillColor=#d5e8d4;strokeColor=#82b366;" parent="1" vertex="1">
          <mxGeometry x="890" y="350" width="90" height="30" as="geometry" />
        </mxCell>
        <mxCell id="WDpdIfvKsCBMP0oGRnhK-27" value="&lt;font style=&quot;font-size: 14px;&quot;&gt;Задача 2&lt;/font&gt;" style="text;html=1;align=center;verticalAlign=middle;whiteSpace=wrap;rounded=0;" parent="1" vertex="1">
          <mxGeometry x="600" y="390" width="90" height="30" as="geometry" />
        </mxCell>
        <mxCell id="WDpdIfvKsCBMP0oGRnhK-28" value="&lt;font style=&quot;font-size: 14px;&quot;&gt;статус&lt;/font&gt;" style="rounded=1;whiteSpace=wrap;html=1;fillColor=#fff2cc;strokeColor=#d6b656;" parent="1" vertex="1">
          <mxGeometry x="890" y="390" width="90" height="30" as="geometry" />
        </mxCell>
        <mxCell id="WDpdIfvKsCBMP0oGRnhK-29" value="&lt;font style=&quot;font-size: 14px;&quot;&gt;Задача 3&lt;/font&gt;" style="text;html=1;align=center;verticalAlign=middle;whiteSpace=wrap;rounded=0;" parent="1" vertex="1">
          <mxGeometry x="600" y="430" width="90" height="30" as="geometry" />
        </mxCell>
        <mxCell id="WDpdIfvKsCBMP0oGRnhK-30" value="&lt;font style=&quot;font-size: 14px;&quot;&gt;статус&lt;/font&gt;" style="rounded=1;whiteSpace=wrap;html=1;fillColor=#f5f5f5;strokeColor=#666666;fontColor=#333333;" parent="1" vertex="1">
          <mxGeometry x="890" y="430" width="90" height="30" as="geometry" />
        </mxCell>
        <mxCell id="WDpdIfvKsCBMP0oGRnhK-31" value="все" style="rounded=1;whiteSpace=wrap;html=1;fillColor=#e1d5e7;strokeColor=#9673a6;" parent="1" vertex="1">
          <mxGeometry x="940" y="300" width="40" height="30" as="geometry" />
        </mxCell>
        <mxCell id="WDpdIfvKsCBMP0oGRnhK-32" value="" style="rounded=1;whiteSpace=wrap;html=1;" parent="1" vertex="1">
          <mxGeometry x="5" y="380" width="440" height="460" as="geometry" />
        </mxCell>
        <mxCell id="WDpdIfvKsCBMP0oGRnhK-33" value="&lt;font style=&quot;font-size: 16px;&quot;&gt;страница задачи&lt;/font&gt;" style="text;html=1;align=center;verticalAlign=middle;whiteSpace=wrap;rounded=0;" parent="1" vertex="1">
          <mxGeometry x="30" y="340" width="160" height="30" as="geometry" />
        </mxCell>
        <mxCell id="WDpdIfvKsCBMP0oGRnhK-34" value="&lt;font style=&quot;font-size: 20px;&quot;&gt;&lt;b style=&quot;&quot;&gt;Название&lt;/b&gt;&lt;/font&gt;" style="text;html=1;align=center;verticalAlign=middle;whiteSpace=wrap;rounded=0;" parent="1" vertex="1">
          <mxGeometry x="40" y="410" width="60" height="30" as="geometry" />
        </mxCell>
        <mxCell id="WDpdIfvKsCBMP0oGRnhK-35" value="&lt;font style=&quot;font-size: 14px;&quot;&gt;Проект 1&lt;/font&gt;" style="text;html=1;align=center;verticalAlign=middle;whiteSpace=wrap;rounded=0;" parent="1" vertex="1">
          <mxGeometry x="40" y="440" width="60" height="30" as="geometry" />
        </mxCell>
        <mxCell id="WDpdIfvKsCBMP0oGRnhK-36" value="&lt;span style=&quot;font-size: 14px;&quot;&gt;дата создания/последнего изменения&lt;/span&gt;" style="text;html=1;align=center;verticalAlign=middle;whiteSpace=wrap;rounded=0;" parent="1" vertex="1">
          <mxGeometry x="20" y="475" width="200" height="30" as="geometry" />
        </mxCell>
        <mxCell id="WDpdIfvKsCBMP0oGRnhK-37" value="&lt;font style=&quot;font-size: 14px;&quot;&gt;статус&lt;/font&gt;" style="rounded=1;whiteSpace=wrap;html=1;fillColor=#d5e8d4;strokeColor=#82b366;" parent="1" vertex="1">
          <mxGeometry x="340" y="410" width="90" height="30" as="geometry" />
        </mxCell>
        <mxCell id="WDpdIfvKsCBMP0oGRnhK-38" value="&lt;h1 style=&quot;margin-top: 0px;&quot;&gt;&lt;span style=&quot;font-weight: normal;&quot;&gt;&lt;font style=&quot;font-size: 14px;&quot;&gt;Описание&lt;/font&gt;&lt;/span&gt;&lt;/h1&gt;&lt;p&gt;Lorem ipsum dolor sit amet, consectetur adipisicing elit, sed do eiusmod tempor incididunt ut labore et dolore magna aliqua.&lt;/p&gt;" style="text;html=1;whiteSpace=wrap;overflow=hidden;rounded=0;" parent="1" vertex="1">
          <mxGeometry x="30" y="500" width="420" height="120" as="geometry" />
        </mxCell>
        <mxCell id="WDpdIfvKsCBMP0oGRnhK-39" value="" style="shape=note;whiteSpace=wrap;html=1;backgroundOutline=1;darkOpacity=0.05;" parent="1" vertex="1">
          <mxGeometry x="40" y="690" width="40" height="50" as="geometry" />
        </mxCell>
        <mxCell id="WDpdIfvKsCBMP0oGRnhK-40" value="файл1" style="text;html=1;align=center;verticalAlign=middle;whiteSpace=wrap;rounded=0;" parent="1" vertex="1">
          <mxGeometry x="30" y="740" width="60" height="30" as="geometry" />
        </mxCell>
        <mxCell id="WDpdIfvKsCBMP0oGRnhK-43" value="" style="shape=note;whiteSpace=wrap;html=1;backgroundOutline=1;darkOpacity=0.05;" parent="1" vertex="1">
          <mxGeometry x="100" y="690" width="40" height="50" as="geometry" />
        </mxCell>
        <mxCell id="WDpdIfvKsCBMP0oGRnhK-44" value="файл2" style="text;html=1;align=center;verticalAlign=middle;whiteSpace=wrap;rounded=0;" parent="1" vertex="1">
          <mxGeometry x="90" y="740" width="60" height="30" as="geometry" />
        </mxCell>
        <mxCell id="WDpdIfvKsCBMP0oGRnhK-47" value="" style="whiteSpace=wrap;html=1;aspect=fixed;" parent="1" vertex="1">
          <mxGeometry x="30" y="590" width="50" height="50" as="geometry" />
        </mxCell>
        <mxCell id="WDpdIfvKsCBMP0oGRnhK-48" value="картинка1" style="text;html=1;align=center;verticalAlign=middle;whiteSpace=wrap;rounded=0;" parent="1" vertex="1">
          <mxGeometry x="25" y="640" width="60" height="30" as="geometry" />
        </mxCell>
        <mxCell id="WDpdIfvKsCBMP0oGRnhK-49" value="" style="whiteSpace=wrap;html=1;aspect=fixed;" parent="1" vertex="1">
          <mxGeometry x="95" y="590" width="50" height="50" as="geometry" />
        </mxCell>
        <mxCell id="WDpdIfvKsCBMP0oGRnhK-50" value="картинка2" style="text;html=1;align=center;verticalAlign=middle;whiteSpace=wrap;rounded=0;" parent="1" vertex="1">
          <mxGeometry x="90" y="640" width="60" height="30" as="geometry" />
        </mxCell>
        <mxCell id="WDpdIfvKsCBMP0oGRnhK-69" value="" style="endArrow=classic;html=1;rounded=0;exitX=0;exitY=0.5;exitDx=0;exitDy=0;entryX=1;entryY=0.25;entryDx=0;entryDy=0;" parent="1" edge="1">
          <mxGeometry width="50" height="50" relative="1" as="geometry">
            <mxPoint x="380" y="790" as="sourcePoint" />
            <mxPoint x="90" y="777.5" as="targetPoint" />
          </mxGeometry>
        </mxCell>
        <mxCell id="WDpdIfvKsCBMP0oGRnhK-79" value="" style="endArrow=classic;html=1;rounded=0;" parent="1" source="WDpdIfvKsCBMP0oGRnhK-80" target="WDpdIfvKsCBMP0oGRnhK-22" edge="1">
          <mxGeometry width="50" height="50" relative="1" as="geometry">
            <mxPoint x="739" y="330" as="sourcePoint" />
            <mxPoint x="700" y="560" as="targetPoint" />
          </mxGeometry>
        </mxCell>
        <mxCell id="WDpdIfvKsCBMP0oGRnhK-80" value="&lt;font style=&quot;font-size: 14px;&quot;&gt;тут последние по созданию/изменению задачи&lt;/font&gt;" style="text;html=1;align=center;verticalAlign=middle;whiteSpace=wrap;rounded=0;" parent="1" vertex="1">
          <mxGeometry x="695" y="545" width="190" height="30" as="geometry" />
        </mxCell>
        <mxCell id="WDpdIfvKsCBMP0oGRnhK-85" value="&lt;span style=&quot;font-size: 14px;&quot;&gt;дата сдачи&lt;/span&gt;" style="text;html=1;align=center;verticalAlign=middle;whiteSpace=wrap;rounded=0;" parent="1" vertex="1">
          <mxGeometry x="260" y="470" width="90" height="30" as="geometry" />
        </mxCell>
        <mxCell id="HioznCeSoNe0UJD3Muhc-12" value="задача файл" style="swimlane;fontStyle=0;childLayout=stackLayout;horizontal=1;startSize=30;horizontalStack=0;resizeParent=1;resizeParentMax=0;resizeLast=0;collapsible=1;marginBottom=0;whiteSpace=wrap;html=1;" parent="1" vertex="1">
          <mxGeometry x="450" y="100" width="291" height="90" as="geometry" />
        </mxCell>
        <mxCell id="HioznCeSoNe0UJD3Muhc-13" value="задача (внешний ключ) (обязательное поле)" style="text;strokeColor=none;fillColor=none;align=left;verticalAlign=middle;spacingLeft=4;spacingRight=4;overflow=hidden;points=[[0,0.5],[1,0.5]];portConstraint=eastwest;rotatable=0;whiteSpace=wrap;html=1;" parent="HioznCeSoNe0UJD3Muhc-12" vertex="1">
          <mxGeometry y="30" width="291" height="30" as="geometry" />
        </mxCell>
        <mxCell id="HioznCeSoNe0UJD3Muhc-14" value="файлы (обязательное поле)" style="text;strokeColor=none;fillColor=none;align=left;verticalAlign=middle;spacingLeft=4;spacingRight=4;overflow=hidden;points=[[0,0.5],[1,0.5]];portConstraint=eastwest;rotatable=0;whiteSpace=wrap;html=1;" parent="HioznCeSoNe0UJD3Muhc-12" vertex="1">
          <mxGeometry y="60" width="291" height="30" as="geometry" />
        </mxCell>
        <mxCell id="HioznCeSoNe0UJD3Muhc-22" value="отчет файл" style="swimlane;fontStyle=0;childLayout=stackLayout;horizontal=1;startSize=30;horizontalStack=0;resizeParent=1;resizeParentMax=0;resizeLast=0;collapsible=1;marginBottom=0;whiteSpace=wrap;html=1;" parent="1" vertex="1">
          <mxGeometry x="760" y="100" width="291" height="90" as="geometry" />
        </mxCell>
        <mxCell id="HioznCeSoNe0UJD3Muhc-23" value="отчет (внешний ключ) (обязательное поле)" style="text;strokeColor=none;fillColor=none;align=left;verticalAlign=middle;spacingLeft=4;spacingRight=4;overflow=hidden;points=[[0,0.5],[1,0.5]];portConstraint=eastwest;rotatable=0;whiteSpace=wrap;html=1;" parent="HioznCeSoNe0UJD3Muhc-22" vertex="1">
          <mxGeometry y="30" width="291" height="30" as="geometry" />
        </mxCell>
        <mxCell id="HioznCeSoNe0UJD3Muhc-24" value="файлы (обязательное поле)" style="text;strokeColor=none;fillColor=none;align=left;verticalAlign=middle;spacingLeft=4;spacingRight=4;overflow=hidden;points=[[0,0.5],[1,0.5]];portConstraint=eastwest;rotatable=0;whiteSpace=wrap;html=1;" parent="HioznCeSoNe0UJD3Muhc-22" vertex="1">
          <mxGeometry y="60" width="291" height="30" as="geometry" />
        </mxCell>
        <mxCell id="HioznCeSoNe0UJD3Muhc-26" value="&lt;font style=&quot;font-size: 14px;&quot;&gt;На главной странице&lt;/font&gt;" style="text;html=1;align=center;verticalAlign=middle;whiteSpace=wrap;rounded=0;" parent="1" vertex="1">
          <mxGeometry x="610" y="250" width="190" height="30" as="geometry" />
        </mxCell>
        <mxCell id="HioznCeSoNe0UJD3Muhc-28" value="" style="rounded=1;whiteSpace=wrap;html=1;" parent="1" vertex="1">
          <mxGeometry x="25" y="860" width="500" height="560" as="geometry" />
        </mxCell>
        <mxCell id="HioznCeSoNe0UJD3Muhc-29" value="&lt;font style=&quot;font-size: 20px;&quot;&gt;&lt;b style=&quot;&quot;&gt;Отчеты&lt;/b&gt;&lt;/font&gt;" style="text;html=1;align=center;verticalAlign=middle;whiteSpace=wrap;rounded=0;" parent="1" vertex="1">
          <mxGeometry x="65" y="898" width="60" height="30" as="geometry" />
        </mxCell>
        <mxCell id="HioznCeSoNe0UJD3Muhc-30" value="" style="rounded=1;whiteSpace=wrap;html=1;" parent="1" vertex="1">
          <mxGeometry x="60" y="1329" width="420" height="40" as="geometry" />
        </mxCell>
        <mxCell id="HioznCeSoNe0UJD3Muhc-31" value="&lt;font style=&quot;font-size: 14px;&quot;&gt;Отчет1&lt;/font&gt;" style="text;html=1;align=center;verticalAlign=middle;whiteSpace=wrap;rounded=0;" parent="1" vertex="1">
          <mxGeometry x="65" y="1334" width="60" height="30" as="geometry" />
        </mxCell>
        <mxCell id="HioznCeSoNe0UJD3Muhc-32" value="дата" style="text;html=1;align=center;verticalAlign=middle;whiteSpace=wrap;rounded=0;" parent="1" vertex="1">
          <mxGeometry x="419" y="1334" width="60" height="30" as="geometry" />
        </mxCell>
        <mxCell id="HioznCeSoNe0UJD3Muhc-33" value="" style="rounded=1;whiteSpace=wrap;html=1;" parent="1" vertex="1">
          <mxGeometry x="60" y="1278" width="420" height="40" as="geometry" />
        </mxCell>
        <mxCell id="HioznCeSoNe0UJD3Muhc-34" value="&lt;font style=&quot;font-size: 14px;&quot;&gt;Отчет2&lt;/font&gt;" style="text;html=1;align=center;verticalAlign=middle;whiteSpace=wrap;rounded=0;" parent="1" vertex="1">
          <mxGeometry x="60" y="1283" width="60" height="30" as="geometry" />
        </mxCell>
        <mxCell id="HioznCeSoNe0UJD3Muhc-35" value="дата" style="text;html=1;align=center;verticalAlign=middle;whiteSpace=wrap;rounded=0;" parent="1" vertex="1">
          <mxGeometry x="414" y="1283" width="60" height="30" as="geometry" />
        </mxCell>
        <mxCell id="HioznCeSoNe0UJD3Muhc-36" value="" style="rounded=1;whiteSpace=wrap;html=1;" parent="1" vertex="1">
          <mxGeometry x="55" y="928" width="420" height="330" as="geometry" />
        </mxCell>
        <mxCell id="HioznCeSoNe0UJD3Muhc-37" value="&lt;font style=&quot;font-size: 14px;&quot;&gt;Отчет 3&lt;/font&gt;" style="text;html=1;align=center;verticalAlign=middle;whiteSpace=wrap;rounded=0;" parent="1" vertex="1">
          <mxGeometry x="65" y="938" width="60" height="30" as="geometry" />
        </mxCell>
        <mxCell id="HioznCeSoNe0UJD3Muhc-39" value="&lt;font style=&quot;font-size: 14px;&quot;&gt;Дата&lt;/font&gt;" style="text;html=1;align=center;verticalAlign=middle;whiteSpace=wrap;rounded=0;" parent="1" vertex="1">
          <mxGeometry x="395" y="938" width="60" height="30" as="geometry" />
        </mxCell>
        <mxCell id="HioznCeSoNe0UJD3Muhc-40" value="" style="endArrow=classic;html=1;rounded=0;exitX=0;exitY=0.25;exitDx=0;exitDy=0;" parent="1" source="HioznCeSoNe0UJD3Muhc-51" target="HioznCeSoNe0UJD3Muhc-39" edge="1">
          <mxGeometry width="50" height="50" relative="1" as="geometry">
            <mxPoint x="-385" y="990" as="sourcePoint" />
            <mxPoint x="-335" y="940" as="targetPoint" />
          </mxGeometry>
        </mxCell>
        <mxCell id="HioznCeSoNe0UJD3Muhc-41" value="&lt;h1 style=&quot;margin-top: 0px;&quot;&gt;&lt;span style=&quot;font-weight: normal;&quot;&gt;&lt;font style=&quot;font-size: 14px;&quot;&gt;Комментарий&lt;/font&gt;&lt;/span&gt;&lt;/h1&gt;&lt;p&gt;Lorem ipsum dolor sit amet, consectetur adipisicing elit, sed do eiusmod tempor incididunt ut labore et dolore magna aliqua.&lt;/p&gt;" style="text;html=1;whiteSpace=wrap;overflow=hidden;rounded=0;" parent="1" vertex="1">
          <mxGeometry x="65" y="988" width="420" height="100" as="geometry" />
        </mxCell>
        <mxCell id="HioznCeSoNe0UJD3Muhc-42" value="" style="shape=note;whiteSpace=wrap;html=1;backgroundOutline=1;darkOpacity=0.05;" parent="1" vertex="1">
          <mxGeometry x="80" y="1178" width="40" height="50" as="geometry" />
        </mxCell>
        <mxCell id="HioznCeSoNe0UJD3Muhc-43" value="файл1" style="text;html=1;align=center;verticalAlign=middle;whiteSpace=wrap;rounded=0;" parent="1" vertex="1">
          <mxGeometry x="70" y="1228" width="60" height="30" as="geometry" />
        </mxCell>
        <mxCell id="HioznCeSoNe0UJD3Muhc-44" value="" style="shape=note;whiteSpace=wrap;html=1;backgroundOutline=1;darkOpacity=0.05;" parent="1" vertex="1">
          <mxGeometry x="140" y="1178" width="40" height="50" as="geometry" />
        </mxCell>
        <mxCell id="HioznCeSoNe0UJD3Muhc-45" value="файл2" style="text;html=1;align=center;verticalAlign=middle;whiteSpace=wrap;rounded=0;" parent="1" vertex="1">
          <mxGeometry x="130" y="1228" width="60" height="30" as="geometry" />
        </mxCell>
        <mxCell id="HioznCeSoNe0UJD3Muhc-46" value="" style="whiteSpace=wrap;html=1;aspect=fixed;" parent="1" vertex="1">
          <mxGeometry x="70" y="1078" width="50" height="50" as="geometry" />
        </mxCell>
        <mxCell id="HioznCeSoNe0UJD3Muhc-47" value="картинка1" style="text;html=1;align=center;verticalAlign=middle;whiteSpace=wrap;rounded=0;" parent="1" vertex="1">
          <mxGeometry x="65" y="1128" width="60" height="30" as="geometry" />
        </mxCell>
        <mxCell id="HioznCeSoNe0UJD3Muhc-48" value="" style="whiteSpace=wrap;html=1;aspect=fixed;" parent="1" vertex="1">
          <mxGeometry x="135" y="1078" width="51" height="51" as="geometry" />
        </mxCell>
        <mxCell id="HioznCeSoNe0UJD3Muhc-49" value="картинка2" style="text;html=1;align=center;verticalAlign=middle;whiteSpace=wrap;rounded=0;" parent="1" vertex="1">
          <mxGeometry x="130" y="1128" width="60" height="30" as="geometry" />
        </mxCell>
        <mxCell id="HioznCeSoNe0UJD3Muhc-50" value="&lt;span style=&quot;font-size: 14px;&quot;&gt;Потрачено времени&lt;/span&gt;" style="text;html=1;align=center;verticalAlign=middle;whiteSpace=wrap;rounded=0;" parent="1" vertex="1">
          <mxGeometry x="55" y="967" width="160" height="30" as="geometry" />
        </mxCell>
        <mxCell id="HioznCeSoNe0UJD3Muhc-51" value="&lt;font style=&quot;font-size: 14px;&quot;&gt;автоматически ставится текущая дата&lt;/font&gt;" style="text;html=1;align=center;verticalAlign=middle;whiteSpace=wrap;rounded=0;" parent="1" vertex="1">
          <mxGeometry x="565" y="910" width="160" height="30" as="geometry" />
        </mxCell>
        <mxCell id="HioznCeSoNe0UJD3Muhc-53" style="edgeStyle=orthogonalEdgeStyle;rounded=0;orthogonalLoop=1;jettySize=auto;html=1;" parent="1" source="HioznCeSoNe0UJD3Muhc-52" target="WDpdIfvKsCBMP0oGRnhK-1" edge="1">
          <mxGeometry relative="1" as="geometry" />
        </mxCell>
        <mxCell id="HioznCeSoNe0UJD3Muhc-52" value="класс" style="text;html=1;align=center;verticalAlign=middle;resizable=0;points=[];autosize=1;strokeColor=none;fillColor=none;" parent="1" vertex="1">
          <mxGeometry x="40" y="250" width="50" height="30" as="geometry" />
        </mxCell>
        <mxCell id="HioznCeSoNe0UJD3Muhc-65" value="суммируется из всех отчетов" style="text;html=1;align=center;verticalAlign=middle;resizable=0;points=[];autosize=1;strokeColor=none;fillColor=none;" parent="1" vertex="1">
          <mxGeometry x="540" y="640" width="180" height="30" as="geometry" />
        </mxCell>
        <mxCell id="HioznCeSoNe0UJD3Muhc-66" value="&lt;font style=&quot;font-size: 14px;&quot;&gt;дата начала-дата окончания&lt;/font&gt;" style="text;html=1;align=center;verticalAlign=middle;whiteSpace=wrap;rounded=0;" parent="1" vertex="1">
          <mxGeometry x="690" y="350" width="190" height="30" as="geometry" />
        </mxCell>
        <mxCell id="HioznCeSoNe0UJD3Muhc-67" value="&lt;font style=&quot;font-size: 14px;&quot;&gt;дата начала-дата окончания&lt;/font&gt;" style="text;html=1;align=center;verticalAlign=middle;whiteSpace=wrap;rounded=0;" parent="1" vertex="1">
          <mxGeometry x="695" y="390" width="190" height="30" as="geometry" />
        </mxCell>
        <mxCell id="HioznCeSoNe0UJD3Muhc-68" value="&lt;font style=&quot;font-size: 14px;&quot;&gt;дата начала-дата окончания&lt;/font&gt;" style="text;html=1;align=center;verticalAlign=middle;whiteSpace=wrap;rounded=0;" parent="1" vertex="1">
          <mxGeometry x="695" y="430" width="190" height="30" as="geometry" />
        </mxCell>
        <mxCell id="HioznCeSoNe0UJD3Muhc-69" value="&lt;span style=&quot;font-size: 14px;&quot;&gt;всего потрачено&lt;/span&gt;" style="text;html=1;align=center;verticalAlign=middle;whiteSpace=wrap;rounded=0;" parent="1" vertex="1">
          <mxGeometry x="120" y="440" width="200" height="30" as="geometry" />
        </mxCell>
        <mxCell id="HioznCeSoNe0UJD3Muhc-70" value="" style="endArrow=classic;html=1;rounded=0;" parent="1" source="HioznCeSoNe0UJD3Muhc-65" target="HioznCeSoNe0UJD3Muhc-69" edge="1">
          <mxGeometry width="50" height="50" relative="1" as="geometry">
            <mxPoint x="450" y="560" as="sourcePoint" />
            <mxPoint x="500" y="510" as="targetPoint" />
          </mxGeometry>
        </mxCell>
        <mxCell id="HioznCeSoNe0UJD3Muhc-71" value="&lt;font style=&quot;font-size: 14px;&quot;&gt;добавить отчет&lt;/font&gt;" style="rounded=1;whiteSpace=wrap;html=1;fillColor=#e1d5e7;strokeColor=#9673a6;" parent="1" vertex="1">
          <mxGeometry x="324" y="880" width="131" height="30" as="geometry" />
        </mxCell>
        <mxCell id="HioznCeSoNe0UJD3Muhc-73" value="&lt;font style=&quot;font-size: 14px;&quot;&gt;статус задачи меняет биг босс&lt;/font&gt;" style="text;html=1;align=center;verticalAlign=middle;resizable=0;points=[];autosize=1;strokeColor=none;fillColor=none;" parent="1" vertex="1">
          <mxGeometry x="500" y="730" width="220" height="30" as="geometry" />
        </mxCell>
        <mxCell id="HioznCeSoNe0UJD3Muhc-74" value="&lt;font style=&quot;font-size: 14px;&quot;&gt;отправить отчет&lt;/font&gt;" style="rounded=1;whiteSpace=wrap;html=1;fillColor=#e1d5e7;strokeColor=#9673a6;" parent="1" vertex="1">
          <mxGeometry x="310" y="1220" width="131" height="30" as="geometry" />
        </mxCell>
        <mxCell id="HioznCeSoNe0UJD3Muhc-75" value="" style="rounded=1;whiteSpace=wrap;html=1;" parent="1" vertex="1">
          <mxGeometry x="455" y="-400" width="479" height="270" as="geometry" />
        </mxCell>
        <mxCell id="HioznCeSoNe0UJD3Muhc-76" value="&lt;h1 style=&quot;margin-top: 0px;&quot;&gt;Heading&lt;/h1&gt;&lt;p&gt;Lorem ipsum dolor sit amet, consectetur adipisicing elit, sed do eiusmod tempor incididunt ut labore et dolore magna aliqua.&lt;/p&gt;" style="text;html=1;whiteSpace=wrap;overflow=hidden;rounded=0;" parent="1" vertex="1">
          <mxGeometry x="481" y="-370" width="433" height="120" as="geometry" />
        </mxCell>
        <mxCell id="HioznCeSoNe0UJD3Muhc-77" value="" style="rounded=1;whiteSpace=wrap;html=1;" parent="1" vertex="1">
          <mxGeometry x="481" y="-270" width="90" height="30" as="geometry" />
        </mxCell>
        <mxCell id="HioznCeSoNe0UJD3Muhc-78" value="" style="rounded=1;whiteSpace=wrap;html=1;" parent="1" vertex="1">
          <mxGeometry x="574" y="-270" width="90" height="30" as="geometry" />
        </mxCell>
        <mxCell id="HioznCeSoNe0UJD3Muhc-79" value="" style="rounded=1;whiteSpace=wrap;html=1;" parent="1" vertex="1">
          <mxGeometry x="674" y="-270" width="90" height="30" as="geometry" />
        </mxCell>
        <mxCell id="HioznCeSoNe0UJD3Muhc-80" value="" style="shape=note;whiteSpace=wrap;html=1;backgroundOutline=1;darkOpacity=0.05;" parent="1" vertex="1">
          <mxGeometry x="774" y="-285" width="40" height="60" as="geometry" />
        </mxCell>
        <mxCell id="HioznCeSoNe0UJD3Muhc-81" value="лайтгалерея" style="text;html=1;align=center;verticalAlign=middle;resizable=0;points=[];autosize=1;strokeColor=none;fillColor=none;" parent="1" vertex="1">
          <mxGeometry x="649.5" y="-225" width="90" height="30" as="geometry" />
        </mxCell>
        <mxCell id="HioznCeSoNe0UJD3Muhc-86" value="на будущее" style="text;html=1;align=center;verticalAlign=middle;resizable=0;points=[];autosize=1;strokeColor=none;fillColor=none;" parent="1" vertex="1">
          <mxGeometry x="674" y="-440" width="90" height="30" as="geometry" />
        </mxCell>
      </root>
    </mxGraphModel>
  </diagram>
</mxfile>
